<svg width="114" height="30" viewBox="0 0 114 30" fill="none" xmlns="http://www.w3.org/2000/svg">
<path fill-rule="evenodd" clip-rule="evenodd" d="M9.95721 8.68823V12.4702H23.5214V20.0341H9.95721V28.8756C11.0241 29.3867 12.0909 29.7444 13.2086 30C19.8128 28.6201 26.0107 22.6916 26.2139 12.1635L26.2647 8.73934H9.95721V8.68823Z" fill="#2D7D2F"/>
<path d="M26.3155 8.68824L26.4171 0.511073C22.0481 0.153322 17.6283 0 13.2086 0C8.78877 0 4.36898 0.153322 0 0.511073L0.101604 6.89949L0.203209 12.1124C0.203209 12.1124 0.254011 16.9676 1.87968 20.4429C4.57219 26.7291 9.95722 28.8245 9.95722 28.8245V19.983H23.5214V12.4191H9.95722V8.68824H26.3155Z" fill="#72BF44"/>
<path d="M39.2193 5.77516V7.76835H43.2834V9.96596H39.2193V13.5946H36.5775V3.57755H43.639V5.77516H39.2193Z" fill="black"/>
<path d="M51.0054 10.937H48.9225V13.5946H46.2808V3.57755H51.4118C52.2246 3.57755 52.885 3.67976 53.3931 3.83308C53.9011 3.9864 54.2567 4.29305 54.5107 4.75301C54.7647 5.16187 54.8663 5.82627 54.8663 6.64398C54.8663 7.30838 54.8155 7.87056 54.7647 8.22831C54.7139 8.58606 54.5615 8.89271 54.2567 9.14824C54.0027 9.40378 53.5455 9.60821 52.9358 9.76153V9.86375C53.4947 9.86375 53.9519 10.0682 54.2567 10.3237C54.5615 10.6304 54.7139 11.0392 54.7139 11.6014V13.5946H52.0722V12.2147C52.0722 11.397 51.7166 10.937 51.0054 10.937ZM48.9225 8.63717H51.0054C51.361 8.63717 51.615 8.58606 51.7674 8.48385C51.9198 8.38163 52.0214 8.22831 52.0722 8.02388C52.123 7.81945 52.123 7.51281 52.123 7.05284C52.123 6.59288 52.0722 6.28623 51.9198 6.13291C51.7674 5.97959 51.4626 5.87737 51.0562 5.87737H48.9733V8.63717H48.9225Z" fill="black"/>
<path d="M60.3021 5.77516V7.61502H64.5695V9.45489H60.3021V11.4481H64.9251V13.5946H57.6604V3.57755H64.8743V5.77516H60.3021Z" fill="black"/>
<path d="M70.5642 5.77516V7.61502H74.8316V9.45489H70.5642V11.4481H75.1872V13.5946H67.9225V3.57755H75.0856V5.77516H70.5642Z" fill="black"/>
<path d="M78.0829 13.5946V3.57755H83.1123C84.0775 3.57755 84.8396 3.67976 85.3984 3.9353C86.008 4.19083 86.4144 4.59969 86.7192 5.16187C87.0241 5.72405 87.1257 6.49066 87.1257 7.41059V9.50599C87.1257 10.4259 87.0241 11.1925 86.7701 11.8058C86.5668 12.4191 86.1604 12.828 85.6524 13.1346C85.0936 13.4413 84.3824 13.5435 83.4679 13.5435H78.0829V13.5946ZM80.7246 5.92848V11.2948H83.0615C83.9759 11.2948 84.3824 10.7326 84.3824 9.60821V7.51281C84.3824 7.10395 84.3316 6.7462 84.2299 6.54177C84.1283 6.33734 83.9759 6.18402 83.8235 6.0818C83.6203 5.97959 83.3663 5.97959 83.0615 5.97959H80.7246V5.92848Z" fill="black"/>
<path d="M94.2888 13.6967C93.5267 13.6967 92.9171 13.6456 92.3583 13.5434C91.7995 13.4412 91.3422 13.2368 90.9358 12.9812C90.5294 12.7257 90.2246 12.3168 90.0214 11.8569C89.8182 11.3458 89.6658 10.7325 89.6658 10.017V7.20611C89.6658 6.4395 89.7674 5.82621 90.0214 5.36625C90.2246 4.85517 90.5294 4.49742 90.9358 4.24189C91.3422 3.98635 91.7995 3.78192 92.3583 3.6797C92.9171 3.57749 93.5267 3.52638 94.2888 3.52638C95.0508 3.52638 95.6604 3.57749 96.2192 3.6797C96.7781 3.78192 97.2353 3.98635 97.6417 4.24189C98.0481 4.49742 98.3529 4.85517 98.5561 5.36625C98.7594 5.87732 98.9118 6.49061 98.9118 7.20611V10.017C98.9118 10.7836 98.8102 11.3969 98.607 11.8569C98.4037 12.3679 98.0989 12.7257 97.6925 12.9812C97.2861 13.2368 96.8289 13.4412 96.27 13.5434C95.6604 13.6456 95.0508 13.6967 94.2888 13.6967ZM94.2888 11.3969C94.7968 11.3969 95.2032 11.3458 95.4572 11.2947C95.7112 11.2436 95.9144 11.0903 96.016 10.8347C96.1176 10.5792 96.1684 10.2214 96.1684 9.76148V7.51275C96.1684 7.155 96.1176 6.84836 96.0668 6.64393C96.016 6.4395 95.9144 6.28618 95.762 6.18396C95.6096 6.08175 95.4572 6.03064 95.2032 5.97953C95 5.92843 94.6952 5.92843 94.2888 5.92843C93.7807 5.92843 93.4251 5.97953 93.1711 6.03064C92.9171 6.08175 92.7647 6.23507 92.6123 6.49061C92.5107 6.69504 92.4091 7.1039 92.4091 7.56386V9.71037C92.4091 10.2214 92.5107 10.5792 92.6123 10.7836C92.7139 11.0392 92.9171 11.1414 93.1711 11.2436C93.4251 11.3458 93.7807 11.3969 94.2888 11.3969Z" fill="black"/>
<path d="M104.043 5.92848L104.348 13.5946H101.655V3.57755H105.872L107.802 9.86375H107.904L109.682 3.57755H114V13.5946H111.358L111.612 5.92848H111.511L108.971 13.5946H106.684L104.144 5.92848H104.043Z" fill="black"/>
<path d="M39.8797 19.1142V19.9319H38.0508V26.1159H36.984V19.9319H35.9171V19.0631H36.984V18.0409C36.984 17.2743 37.1364 16.7121 37.492 16.4055C37.8476 16.0988 38.4064 15.9455 39.2193 15.9455L39.8797 15.9966V16.8654C39.6765 16.8143 39.5241 16.8143 39.3209 16.8143H39.1177C38.7112 16.8143 38.4572 16.9166 38.3048 17.0699C38.1524 17.2232 38.0508 17.5298 38.0508 17.9387V19.0631H39.8797V19.1142Z" fill="black"/>
<path d="M42.7246 17.2232H41.6577V16.0988H42.7246V17.2232ZM42.7246 26.1158H41.6577V19.1141H42.7246V26.1158Z" fill="black"/>
<path d="M46.1791 21.8228V26.1158H45.1123V19.1141H46.1283V20.034C46.3824 19.6252 46.738 19.3697 47.1444 19.2163C47.5 19.1141 47.9572 19.0119 48.516 19.0119C49.4813 19.0119 50.1417 19.1652 50.4973 19.523C50.8529 19.8807 51.0562 20.5451 51.0562 21.4651V26.1158H49.9893V21.5673C49.9893 20.8518 49.8877 20.3918 49.6845 20.1874C49.4813 19.9829 49.0241 19.8296 48.3128 19.8296C47.6016 19.8296 47.0936 19.9829 46.738 20.2896C46.3824 20.5962 46.1791 21.1073 46.1791 21.8228Z" fill="black"/>
<path d="M58.1685 22.6916V21.6695C58.1685 20.8007 58.0668 20.2896 57.8128 20.0852C57.5588 19.8807 57 19.7785 56.1364 19.7785C55.4759 19.7785 55.0695 19.8296 54.8155 19.9829C54.5615 20.1363 54.4599 20.3918 54.4599 20.8518V21.0562H53.393C53.393 20.1874 53.6471 19.6252 54.1551 19.3185C54.5107 19.1141 55.1711 19.0119 56.1364 19.0119C57.2032 19.0119 57.9652 19.1652 58.3717 19.4208C58.8797 19.7785 59.1845 20.4429 59.1845 21.4651V26.1158H58.1685L58.2193 25.247C57.9652 25.707 57.7112 25.9625 57.4064 26.0647C57.1016 26.1669 56.5936 26.2691 55.8824 26.2691C54.9171 26.2691 54.2567 26.1158 53.8503 25.8603C53.3422 25.5536 53.139 24.9404 53.139 24.0204C53.139 23.1516 53.393 22.5894 53.8503 22.2828C54.2567 22.0272 54.8663 21.8739 55.7808 21.8739C56.5936 21.8739 57.1016 21.925 57.4064 22.0272C57.762 22.1806 58.016 22.385 58.1685 22.6916ZM58.1685 24.0715C58.1685 23.4582 58.016 23.1005 57.762 22.9472C57.4572 22.7938 56.8476 22.6916 55.8824 22.6916C55.3235 22.6916 54.9171 22.7427 54.7139 22.8961C54.4599 23.0494 54.3075 23.4071 54.3075 23.8671C54.3075 24.4804 54.4091 24.8381 54.6631 25.0937C54.9171 25.2981 55.3235 25.4003 55.9332 25.4003C56.746 25.4003 57.3048 25.3492 57.6096 25.247C57.9144 25.0426 58.1685 24.6848 58.1685 24.0715Z" fill="black"/>
<path d="M62.6391 21.8228V26.1158H61.5722V19.1141H62.5882V20.034C62.8423 19.6252 63.1979 19.3697 63.6043 19.2163C63.9599 19.1141 64.4171 19.0119 64.9759 19.0119C65.9412 19.0119 66.6016 19.1652 66.9572 19.523C67.3128 19.8807 67.5161 20.5451 67.5161 21.4651V26.1158H66.4492V21.5673C66.4492 20.8518 66.3476 20.3918 66.1444 20.1874C65.9412 19.9829 65.484 19.8296 64.7727 19.8296C64.0615 19.8296 63.5535 19.9829 63.1979 20.2896C62.8423 20.5962 62.6391 21.1073 62.6391 21.8228Z" fill="black"/>
<path d="M74.6791 23.5605H75.6952C75.6952 24.6337 75.4412 25.3492 74.984 25.707C74.5775 26.0647 73.8155 26.218 72.6979 26.218C71.5294 26.218 70.7674 25.9625 70.3102 25.4514C69.9037 24.9404 69.7005 23.9693 69.7005 22.5894C69.7005 21.2095 69.9037 20.2385 70.3102 19.7274C70.7166 19.2163 71.4786 18.9608 72.6471 18.9608C73.6123 18.9608 74.3235 19.1141 74.7807 19.3697C75.2888 19.7274 75.5936 20.2896 75.5936 21.1073V21.3117H74.5775C74.5775 20.6985 74.4759 20.3407 74.2219 20.1363C73.9679 19.8807 73.4599 19.7785 72.6471 19.7785C71.885 19.7785 71.377 19.9318 71.123 20.2896C70.869 20.6473 70.7674 21.3628 70.7674 22.5383C70.7674 23.6627 70.9198 24.4293 71.123 24.787C71.3262 25.1448 71.885 25.3492 72.6471 25.3492C73.4599 25.3492 74.0187 25.247 74.2727 24.9915C74.5775 24.787 74.6791 24.3271 74.6791 23.5605Z" fill="black"/>
<path d="M83.7727 22.7939H78.7941C78.7941 23.8671 78.8957 24.5315 79.1497 24.8893C79.4037 25.247 79.9118 25.4004 80.7754 25.4004C81.5882 25.4004 82.1471 25.2981 82.3503 25.1448C82.6043 24.9915 82.7059 24.6849 82.7059 24.1738V23.9694H83.7727C83.7727 24.8893 83.5187 25.5537 83.0107 25.8603C82.6043 26.1159 81.8422 26.2692 80.7754 26.2692C79.6069 26.2692 78.7941 26.0136 78.3877 25.5026C77.9813 24.9915 77.7273 24.0205 77.7273 22.6406C77.7273 21.3118 77.9813 20.3407 78.4385 19.8297C78.8957 19.3186 79.6577 19.063 80.7754 19.063C81.8422 19.063 82.6551 19.3186 83.1123 19.7786C83.5695 20.2896 83.8235 21.1073 83.8235 22.3339V22.7939H83.7727ZM82.7059 21.9762C82.7059 21.1585 82.5535 20.5963 82.2995 20.2896C81.9946 19.983 81.4866 19.8297 80.7246 19.8297C79.9626 19.8297 79.4545 19.983 79.2005 20.2896C78.9465 20.5963 78.7941 21.1585 78.7941 21.9762H82.7059Z" fill="black"/>
</svg>
