<?xml version="1.0" encoding="UTF-8"?> <!-- Generator: Adobe Illustrator 21.0.2, SVG Export Plug-In . SVG Version: 6.00 Build 0) --> <svg xmlns="http://www.w3.org/2000/svg" xmlns:xlink="http://www.w3.org/1999/xlink" id="Layer_1" x="0px" y="0px" viewBox="0 0 112 112" style="enable-background:new 0 0 112 112;" xml:space="preserve"> <style type="text/css"> .st0{display:none;} .st1{display:inline;fill:none;stroke:#231F20;stroke-width:2;stroke-miterlimit:10;} .st2{display:inline;} .st3{fill:none;stroke:#231F20;stroke-width:2;stroke-miterlimit:10;} .st4{fill:none;stroke:#000000;stroke-width:2;stroke-miterlimit:10;} .st5{display:inline;fill:none;stroke:#000000;stroke-width:2;stroke-miterlimit:10;} .st6{fill:#4F7B37;} .st7{fill:#8BBD4F;} </style> <g class="st0"> <path class="st1" d="M69.9,77.7c0-6.6-4.6-12.1-10.8-13.4v-3.4c2.3-1.1,3.9-3.4,3.9-6.2c0-0.6,0-2.8,0-3.4c0-3.8-3.1-6.8-6.8-6.8 c-3.8,0-6.8,3.1-6.8,6.8c0,0.6,0,2.8,0,3.4c0,2.7,1.6,5,3.8,6.1v3.5c-6.1,1.4-10.7,6.8-10.7,13.4C42.5,77.7,69.9,77.7,69.9,77.7z"></path> <path class="st1" d="M63.1,49.3c1-0.6,2.1-1.1,3.2-1.3v-2.6c-1.7-0.8-2.9-2.6-2.9-4.6c0-0.4,0-2.1,0-2.6c0-2.9,2.3-5.2,5.2-5.2 s5.2,2.3,5.2,5.2c0,0.4,0,2.1,0,2.6c0,2.1-1.2,3.8-3,4.7V48c4.7,1,8.2,5.1,8.2,10.1H62.2"></path> <path class="st1" d="M49.7,49.3c-1-0.6-2.1-1.1-3.2-1.3v-2.6c1.7-0.8,3-2.6,3-4.7c0-0.4,0-2.1,0-2.6c0-2.9-2.3-5.2-5.2-5.2 c-2.8,0-5.2,2.3-5.2,5.2c0,0.4,0,2.1,0,2.6c0,2,1.2,3.8,2.9,4.6V48c-4.6,1-8.1,5.2-8.1,10.1h15.8"></path> </g> <g class="st0"> <g class="st2"> <polygon class="st3" points="78.8,35.4 49.7,35.4 49.7,58.5 56.4,58.5 56.4,65.1 63.1,58.5 78.8,58.5 "></polygon> <polyline class="st3" points="49.7,48.1 35.8,48.1 35.8,71.2 43.1,71.2 49.8,78.3 49.8,71.2 66.3,71.2 66.3,58.8 "></polyline> </g> <ellipse transform="matrix(1 -3.690654e-03 3.690654e-03 1 -0.1528 0.2107)" class="st1" cx="57" cy="41.5" rx="1.7" ry="1.7"></ellipse> <ellipse transform="matrix(1 -3.690654e-03 3.690654e-03 1 -0.1527 0.2394)" class="st1" cx="64.8" cy="41.5" rx="1.7" ry="1.7"></ellipse> </g> <g class="st0"> <polyline class="st1" points="31.8,38.3 37.3,38.3 46.5,69.1 70.6,69.1 74.5,43.6 38.9,43.6 "></polyline> <ellipse class="st1" cx="49.6" cy="75.9" rx="3.1" ry="3.1"></ellipse> <circle class="st1" cx="67.1" cy="76.1" r="3.1"></circle> <line class="st1" x1="44.9" y1="63.8" x2="47.7" y2="73.2"></line> <line class="st1" x1="53" y1="75.3" x2="64" y2="75.3"></line> </g> <g class="st0"> <g class="st2"> <g> <rect x="29.2" y="50.2" class="st4" width="45.2" height="24.7"></rect> </g> <circle class="st4" cx="52" cy="62.5" r="7.7"></circle> <line class="st4" x1="33.9" y1="54.9" x2="33.9" y2="70.2"></line> <line class="st4" x1="69.8" y1="54.9" x2="69.8" y2="70.2"></line> </g> <g class="st2"> <g> <polyline class="st4" points="34.7,50.2 34.7,44.2 79.9,44.2 79.9,68.9 74.4,68.9 "></polyline> </g> </g> <g class="st2"> <g> <polyline class="st4" points="39.8,44.7 39.8,38.7 85,38.7 85,63.4 79.5,63.4 "></polyline> </g> </g> </g> <g class="st0"> <g class="st2"> <circle class="st4" cx="56.8" cy="55.4" r="20.2"></circle> <line class="st4" x1="56.4" y1="40.2" x2="56.4" y2="59.3"></line> <line class="st4" x1="56.4" y1="59.3" x2="63" y2="52.7"></line> </g> <circle class="st5" cx="56.8" cy="55.4" r="25.2"></circle> </g> <path class="st6" d="M94.5,81.9c-0.1-0.2-0.2-0.4-0.3-0.5c-0.1-0.1-0.2-0.3-0.3-0.5c-0.1-0.2-0.1-0.3-0.1-0.5c0-0.2,0.1-0.4,0.2-0.5 c0.1-0.2,0.2-0.3,0.3-0.4c0.2-0.2,0.4-0.4,0.5-0.6c0.1-0.2,0.2-0.5,0.2-0.8c0-0.3-0.1-0.5-0.1-0.7c-0.1-0.2-0.2-0.3-0.4-0.4 c-0.2-0.1-0.4-0.3-0.6-0.5c-0.1-0.2-0.2-0.5-0.3-0.7c0-0.3,0-0.5,0.1-0.8c0.1-0.2,0.3-0.4,0.5-0.6c0.1-0.1,0.2-0.2,0.3-0.4 c0.1-0.2,0.2-0.6,0.2-1c0-0.4-0.1-0.7-0.4-1c-0.2-0.3-0.5-0.4-0.8-0.4h-9.1c-0.2,0-0.4,0-0.6-0.1c-0.2-0.1-0.3-0.2-0.4-0.4 c-0.1-0.2-0.2-0.3-0.2-0.5c0-0.2,0-0.4,0-0.6c0.1-0.5,0.4-1.4,0.5-2.5c0.1-0.8,0.1-1.6,0-2.6c-0.1-1.3-0.5-2.5-1-3.3 c-0.5-0.8-1-1.2-1.6-1.3c-0.3,0-0.5,0-0.8,0l-0.3,0c0.2,0.8,0.4,2,0.4,3c0.1,0.9,0.1,1.7-0.1,2.3c-0.6,2.7-2.7,5-4.4,6.9l0,0 c-0.5,0.6-1.1,1.2-1.5,1.8c-0.4,0.5-0.6,0.9-0.6,1.1v12.2c0,0.2,0.1,0.4,0.2,0.6c0.1,0.1,0.4,0.2,0.6,0.2h16.1l0.1,0 c0.4,0,0.8-0.2,1.1-0.6c0.3-0.3,0.4-0.7,0.4-1.2c0-0.1,0-0.3-0.1-0.4c0-0.1-0.1-0.3-0.2-0.4c-0.1-0.2-0.1-0.4-0.2-0.6 c0-0.2,0-0.4,0.1-0.6c0.1-0.2,0.2-0.3,0.4-0.5c0.1-0.1,0.3-0.2,0.5-0.2c0.4-0.1,0.7-0.3,1-0.6c0.2-0.3,0.4-0.7,0.4-1.1 C94.7,82.3,94.6,82.1,94.5,81.9 M97.1,74.7c-0.1,0.3-0.3,0.6-0.4,0.9c0.3,0.3,0.5,0.6,0.6,1c0.2,0.5,0.3,1,0.3,1.5 c0,0.5-0.1,1-0.3,1.4c-0.1,0.4-0.3,0.8-0.6,1.1c0.1,0.3,0.2,0.5,0.3,0.8c0.1,0.4,0.1,0.7,0.1,1.1c0,0.8-0.2,1.5-0.6,2.2 c-0.4,0.6-0.8,1.1-1.4,1.4l0,0.2c0,0.2,0,0.3,0,0.5c0,1.1-0.4,2.1-1.1,2.8c-0.7,0.7-1.6,1.2-2.7,1.4l-0.2,0l-0.2,0H74.9 c-0.9,0-1.8-0.4-2.4-1c-0.6-0.6-1-1.4-1-2.4V75.5c0-1.4,1.2-2.8,2.8-4.6l0,0c0.8-0.9,1.6-1.8,2.3-2.8c0.7-1,1.2-2,1.5-3 c0.1-0.4,0.1-1.2,0-2c-0.1-1.2-0.4-2.5-0.6-3.4c-0.1-0.3,0-0.5,0.1-0.8c0.1-0.2,0.3-0.4,0.5-0.6c0.1-0.1,0.4-0.2,0.9-0.3 c0.5-0.1,1.3-0.2,2.3-0.2c1.3,0.1,2.5,0.8,3.4,2c0.8,1.2,1.4,2.9,1.6,4.8c0.1,0.9,0.1,1.7,0,2.4c0,0.7-0.1,1.4-0.2,2h7.6 c1,0,1.9,0.5,2.6,1.2c0.7,0.7,1.1,1.7,1.1,2.8C97.3,73.7,97.2,74.2,97.1,74.7z"></path> <path class="st6" d="M68.4,76.1h-1.5c-0.2,0-0.3,0.1-0.4,0.2c-0.1,0.1-0.2,0.2-0.2,0.4V88c0,0.2,0.1,0.3,0.2,0.4 c0.1,0.1,0.2,0.2,0.4,0.2h1.5c0.3,0,0.7,0.1,0.9,0.4c0.2,0.2,0.4,0.5,0.4,0.9c0,0.3-0.1,0.7-0.4,0.9C69,90.9,68.7,91,68.4,91h-1.5 c-0.8,0-1.6-0.3-2.2-0.9c-0.6-0.6-0.9-1.3-0.9-2.2V76.6c0-0.8,0.3-1.6,0.9-2.2c0.6-0.6,1.3-0.9,2.2-0.9h1.5c0.3,0,0.7,0.1,0.9,0.4 c0.2,0.2,0.4,0.5,0.4,0.9c0,0.3-0.1,0.7-0.4,0.9C69,76,68.7,76.1,68.4,76.1"></path> <path class="st7" d="M14.9,36.7c0-4.1,0-15.9,0-15.9s11.2,0,15.9,0c8.8,0,15.9,7.1,15.9,15.9c0,4.3,0,15.9,0,15.9s-11.4,0-15.9,0 C22,52.6,14.9,45.5,14.9,36.7"></path> <path class="st6" d="M36.6,39.5c0.2,7,1.9,12.7,4.1,17.3c3.6,7.3,8.6,11.7,11.4,13.8l0.4,0.3c0.7,0.5,1,0.7,1.1,0.7 c0.1,0,0.4-0.2,0.8-0.5l0.6-0.5c2.8-2.1,7.8-6.6,11.4-13.8c2.3-4.6,3.9-10.3,4.1-17.3h-5.3c-3.4,0-6.1-0.9-8-2 c-1.7-0.9-2.9-2.1-3.6-2.9c-0.8,0.9-2,2-3.6,2.9c-2,1.1-4.6,2-8,2H36.6z M50.7,81.3c-3.2-1.8-9.2-5.9-14.3-13.2 c-5.2-7.3-9.5-17.8-9.5-32.7v-3.7c0-0.4,0.2-0.8,0.4-1c0.3-0.3,0.6-0.4,1-0.4h12.2c2.3,0,4.6-1.3,6.4-2.8c1.9-1.6,3.4-3.4,4.1-4.3 c0.7-0.9,1.4-1.7,2.2-1.9C54,21,54.9,21.5,56,23c0.6,0.9,2.1,2.7,4,4.3c1.9,1.6,4.2,3,6.6,3h12.2c0.4,0,0.8,0.2,1,0.4 c0.3,0.3,0.4,0.6,0.4,1l0.1,3.7c-0.1,6.8-0.6,9.6-1.5,13.6c-0.2,0.7-0.9,1.2-1.6,1c-0.7-0.2-1.4-0.9-1.2-1.6c1.2-5,1.4-7.7,1.4-13 v-2.3H66.7c-5.5,0-10-5.1-12.2-7.6l-0.4-0.4c-0.3-0.3-0.5-0.5-0.6-0.5c-0.1,0-0.3,0.2-0.5,0.5c-0.9,1.1-2.6,3.1-4.7,4.8 c-2.2,1.7-4.9,3.2-7.8,3.2H29.7v2.3c0,14.3,4.2,24.4,9,31.3c4.9,6.9,10.4,10.6,13.3,12.2c0.8,0.4,1.5,1,2.5,0.7 c0.8-0.2,1.4-1.4,2.4-0.6c0.6,0.5,0.8,1.4,0.3,2L57,81.4c-1.8,1.8-4.1,1-6,0.1L50.7,81.3z M61.5,45.3c0.5-0.6,1.4-0.6,2-0.2 c0.6,0.5,0.6,1.4,0.2,2l-8.9,12.5c-0.6,0.7-1.6,0.6-2.1,0l-7.7-9.2c-0.5-0.6-0.5-1.4,0.1-2c0.6-0.5,1.4-0.5,2,0.1l6.7,8.2L61.5,45.3 z M52.3,74.1c-2-1.2-8.9-6.1-13.7-15.4c-2.7-5.3-4.8-12.1-4.8-20.5c0-0.4,0.1-0.7,0.4-1s0.6-0.4,1-0.4h6.7c2.5,0,4.6-0.6,6.1-1.4 c3-1.5,4.3-3.7,4.4-3.8c0.1-0.2,0.3-0.4,0.5-0.5c0.2-0.1,0.4-0.2,0.7-0.2c0.2,0,0.5,0.1,0.7,0.2c0.2,0.1,0.4,0.3,0.5,0.5 c0.1,0.1,0.8,1.4,2.5,2.6c1.7,1.3,4.3,2.5,8,2.5h6.7c0.4,0,0.7,0.2,1,0.4c0.2,0.2,0.4,0.6,0.4,1c0,8.4-2,15.2-4.8,20.5 c-4.8,9.3-11.7,14.1-13.7,15.4c-0.5,0.3-0.8,0.5-1.2,0.5C53.2,74.6,52.9,74.4,52.3,74.1z"></path> </svg> 